<?xml version="1.0" encoding="iso-8859-1"?>
<!-- Uploaded to: SVG Repo, www.svgrepo.com, Generator: SVG Repo Mixer Tools -->
<svg height="800px" width="800px" version="1.1" id="Layer_1" xmlns="http://www.w3.org/2000/svg" xmlns:xlink="http://www.w3.org/1999/xlink" 
	 viewBox="0 0 512 512" xml:space="preserve">
<g>
	<ellipse style="fill:#B36E44;" cx="300.032" cy="143.246" rx="23.009" ry="23.34"/>
	<ellipse style="fill:#B36E44;" cx="300.032" cy="143.246" rx="23.009" ry="23.34"/>
</g>
<path style="fill:#8C5635;" d="M296.028,139.961c0-7.981,3.954-15.019,9.977-19.229c-1.908-0.52-3.904-0.823-5.973-0.823
	c-12.705,0-23.003,10.45-23.003,23.34s10.3,23.34,23.003,23.34c4.838,0,9.323-1.522,13.027-4.112
	C303.254,159.806,296.028,150.75,296.028,139.961z"/>
<path style="fill:#A9CF54;" d="M86.586,322.32c-8.835-7.958-16.701-20.369-21.8-39.416c-5.972-22.306-15.855-38.471-26.823-50.192
	c-0.822-0.879-1.98-1.363-3.184-1.363H4.395c-4.016,0-5.924,4.952-2.934,7.633c20.972,18.814,35.085,53.101,33.73,117.444
	c-1.542,73.292,33.541,79.51,62.734,85.901c0,0,16.776-7.738,11.171-64.6C105.508,341.333,86.586,322.32,86.586,322.32z"/>
<path style="fill:#C9C9C9;" d="M299.051,20.34c-87.242,0-157.966,71.348-157.966,159.357c0,88.009,70.723,159.346,157.966,159.346
	s157.966-71.337,157.966-159.346C457.015,91.688,386.292,20.34,299.051,20.34z M299.051,313.141
	c-73.058,0-132.283-59.75-132.283-133.444c0-73.705,59.225-133.455,132.283-133.455s132.283,59.75,132.283,133.455
	C431.333,253.391,372.108,313.141,299.051,313.141z"/>
<g>
	<path style="fill:#B8B8B8;" d="M308.289,30.075v16.496c68.747,4.786,123.045,62.555,123.045,133.126
		c0,70.561-54.298,128.329-123.045,133.115v16.496c77.771-4.813,139.372-69.945,139.372-149.612
		C447.659,100.031,386.058,34.888,308.289,30.075z"/>
	<path style="fill:#B8B8B8;" d="M292.235,319.702c-73.58-3.585-132.145-64.891-132.145-140.006
		c0-75.116,58.565-136.43,132.145-140.015V20.497c-84.079,3.602-151.15,73.496-151.15,159.201s67.071,155.587,151.15,159.189
		V319.702z"/>
</g>
<path style="fill:#A9CF54;" d="M512,353.94c0,83.636-16.146,151.432-215.359,151.432c-203.291,0-215.348-67.796-215.348-151.432
	c0-51.738,36.896-97.415,93.183-124.73h0.01c4.319-2.094,8.747-4.078,13.285-5.952c30.955-12.781,66.832-20.268,105.153-20.728
	c1.238-0.022,2.477-0.022,3.716-0.022c40.732,0,78.834,7.947,111.324,21.791c3.54,1.491,7.015,3.069,10.413,4.714
	C474.917,256.296,512,302.07,512,353.94z"/>
<g>
	<path style="fill:#92B83D;" d="M101.023,353.94c0-51.738,36.896-97.415,93.183-124.73h0.01
		c32.182-15.619,70.701-25.211,112.286-26.53c-3.271-0.103-6.555-0.172-9.862-0.172c-45.358,0-87.439,9.854-122.154,26.702h-0.01
		c-56.288,27.316-93.183,72.992-93.183,124.73c0,83.636,12.057,151.432,215.348,151.432c3.307,0,6.56-0.02,9.768-0.057
		C112.688,503.115,101.023,436.187,101.023,353.94z"/>
	<path style="fill:#92B83D;" d="M407.964,224.299c-3.113,0.986-6.478,1.896-10.15,2.663c-30.32,6.402-153.822,8.068-195.376-0.636
		c-5.021-1.052-10.172-2.126-14.666-3.069c30.955-12.781,66.832-20.268,105.153-20.728c1.238-0.022,2.477-0.022,3.716-0.022
		C337.373,202.507,375.475,210.455,407.964,224.299z"/>
</g>
<path style="fill:#A3643E;" d="M389.213,221.948H210.851c-6.321,0-11.444-5.123-11.444-11.444v-6.264
	c0-6.321,5.123-11.444,11.444-11.444h178.362c6.321,0,11.444,5.123,11.444,11.444v6.264
	C400.656,216.824,395.532,221.948,389.213,221.948z"/>
<path style="fill:#7D4D2F;" d="M219.137,210.503v-6.264c0-6.321,5.123-11.444,11.444-11.444H210.85
	c-6.321,0-11.444,5.124-11.444,11.444v6.264c0,6.321,5.123,11.444,11.444,11.444h19.731
	C224.261,221.947,219.137,216.824,219.137,210.503z"/>
<path style="fill:#B36E44;" d="M388.223,192.796H211.832c0,0,19.928-19.04,58.402-25.592c0-0.011,0.01,0,0.01,0
	c7.98-1.359,16.771-2.184,26.341-2.184C352.281,165.02,388.223,192.796,388.223,192.796z"/>
<path style="fill:#8C5635;" d="M296.586,165.02c-9.569,0-18.36,0.825-26.341,2.184c0,0-0.01-0.011-0.01,0
	c-38.474,6.552-58.402,25.592-58.402,25.592h19.731c0,0,30.949-23.419,77.43-27.297C304.972,165.199,300.845,165.02,296.586,165.02z
	"/>
<path style="fill:#A3643E;" d="M403.098,52.939l-11.488,14.338l-2.663,3.321l-7.958,9.931c-2.685,3.366-7.399,4.176-11.049,1.94
	c-12.014-7.367-39.823-22.131-69.912-22.131c-30.078,0-57.898,14.765-69.901,22.131c-3.65,2.236-8.363,1.425-11.049-1.94
	l-7.969-9.942l-14.141-17.648c-3.025-3.771-2.422-9.35,1.381-12.298c5.097-3.969,10.391-7.509,15.774-10.677
	c2.291-1.359,4.592-2.642,6.906-3.859c49.337-25.968,108.671-25.968,158.008,0c7.728,4.077,15.401,8.878,22.68,14.535
	C405.509,43.589,406.112,49.169,403.098,52.939z"/>
<path style="fill:#92B83D;" d="M54.647,356.428c1.631-60.694-17.463-108.462-43.859-125.077H4.395c-4.016,0-5.924,4.952-2.934,7.633
	c20.972,18.814,35.085,53.101,33.73,117.444c-1.542,73.292,33.541,79.51,62.734,85.901c0,0,1.702-0.789,3.84-3.695
	C77.045,431.716,53.022,416.905,54.647,356.428z"/>
</svg>